<svg xmlns="http://www.w3.org/2000/svg"
     viewBox="0 0 576 512"><!--!Font Awesome Pro 6.7.2 by @fontawesome - https://fontawesome.com License - https://fontawesome.com/license (Commercial License) Copyright 2025 Fonticons, Inc.-->
    <path class="fa-secondary" opacity=".4"
          d="M64 270.6L288 74.5 512.1 270.6l.4 177.3c.1 35.4-28.6 64.1-64 64.1l-320.4 0c-35.3 0-64-28.6-64-64L64 270.6zM124.8 400a48 48 0 1 0 96 0 48 48 0 1 0 -96 0zM240 371.2l0 96 211.2 0 0-57.6c0-31.8-25.8-57.6-57.6-57.6l-134.4 0c-10.6 0-19.2 8.6-19.2 19.2z"/>
    <path class="fa-primary"
          d="M124.8 400a48 48 0 1 1 96 0 48 48 0 1 1 -96 0zM240 371.2c0-10.6 8.6-19.2 19.2-19.2H393.6c31.8 0 57.6 25.8 57.6 57.6v57.6H240v-96zM309.1 7.9C297-2.6 279-2.6 266.9 7.9l-256 224c-13.3 11.6-14.6 31.9-3 45.2s31.9 14.6 45.2 3L288 74.5 522.9 280.1c13.3 11.6 33.5 10.3 45.2-3s10.3-33.5-3-45.2L512 185.5V64c0-17.7-14.3-32-32-32H448c-17.7 0-32 14.3-32 32v37.5L309.1 7.9z"/>
</svg>