<svg xmlns="http://www.w3.org/2000/svg"
     viewBox="0 0 576 512"><!--!Font Awesome Pro 6.7.2 by @fontawesome - https://fontawesome.com License - https://fontawesome.com/license (Commercial License) Copyright 2025 Fonticons, Inc.-->
    <path class="fa-secondary" opacity=".4"
          d="M112 204.8L288 55.5 464 204.8 464 432c0 17.7-14.3 32-32 32l-288 0c-17.7 0-32-14.3-32-32l0-227.2zm32 169.3c0 11 4.4 21.5 12.3 29.2s18.5 12.1 29.6 12.1s21.8-4.4 29.6-12.1s12.3-18.3 12.3-29.2s-4.4-21.5-12.3-29.2s-18.5-12.1-29.6-12.1s-21.8 4.4-29.6 12.1s-12.3 18.3-12.3 29.2zm100.5-24.8l0 82.7 184.3 0 0-49.6c0-27.4-22.5-49.6-50.3-49.6l-117.3 0c-9.3 0-16.8 7.4-16.8 16.5z"/>
    <path class="fa-primary"
          d="M227.8 374.1c0 11-4.4 21.5-12.3 29.2s-18.5 12.1-29.6 12.1s-21.8-4.4-29.6-12.1s-12.3-18.3-12.3-29.2s4.4-21.5 12.3-29.2s18.5-12.1 29.6-12.1s21.8 4.4 29.6 12.1s12.3 18.3 12.3 29.2zm16.8-24.8c0-9.1 7.5-16.5 16.8-16.5H378.5c27.7 0 50.3 22.2 50.3 49.6V432H244.5V349.3zm28-343.6c9-7.6 22.1-7.6 31.1 0L464 141.9V56c0-13.3 10.7-24 24-24s24 10.7 24 24V182.6l55.5 47.1c10.1 8.6 11.4 23.7 2.8 33.8s-23.7 11.3-33.8 2.8L512 245.5V432c0 44.2-35.8 80-80 80H144c-44.2 0-80-35.8-80-80V245.5L39.5 266.3c-10.1 8.6-25.3 7.3-33.8-2.8s-7.3-25.3 2.8-33.8l264-224zM288 55.5L112 204.8V432c0 17.7 14.3 32 32 32H432c17.7 0 32-14.3 32-32V204.8L288 55.5z"/>
</svg>