<svg xmlns="http://www.w3.org/2000/svg"
     viewBox="0 0 576 512"><!--!Font Awesome Pro 6.7.2 by @fontawesome - https://fontawesome.com License - https://fontawesome.com/license (Commercial License) Copyright 2025 Fonticons, Inc.-->
    <path class="fa-secondary" opacity=".4"
          d="M159.5 352L288 352c35.3 0 64-28.7 64-64l0-128 95.5 0c35.3 0 64 28.7 64 64l0 224c0 35.3-28.7 64-64 64l-224 0c-35.3 0-64-28.7-64-64l0-96z"/>
    <path class="fa-primary"
          d="M0 288c0 35.3 28.7 64 64 64l224 0c35.3 0 64-28.7 64-64l0-224c0-35.3-28.7-64-64-64L64 0C28.7 0 0 28.7 0 64l0 224z"/>
</svg>