<svg xmlns="http://www.w3.org/2000/svg"
     viewBox="0 0 576 512"><!--!Font Awesome Pro 6.7.2 by @fontawesome - https://fontawesome.com License - https://fontawesome.com/license (Commercial License) Copyright 2025 Fonticons, Inc.-->
    <path class="fa-secondary" opacity=".4"
          d="M64 272.1L206.4 147.2l7.8 11.2c11.2 18.5 23.4 22 32.6 20.8L264 193.6l36.8 49.6 67.2 9.6L379.2 320 464 363.2l48.5 73.6 0 35.1c0 22.1-17.9 40.1-40 40.1L392 512c-22.1 0-40-17.9-40-40l0-88.3c0-17.7-14.3-32-32-32l-64 0c-17.7 0-32 14.3-32 32l0 88.3c0 22.1-17.9 40-40 40l-79.9 0c-22.1 0-40-17.9-40-40L64 272.1z"/>
    <path class="fa-primary"
          d="M187.2 76.8c12.1-10.5 24.7-10.5 36.8 0c0 0 6.4 9.6 28.8 40s12.8 51.2 8 56s-27.2 17.6-46.6-14.4l-7.8-11.2L54.7 280.3c-13.3 11.6-33.5 10.3-45.2-3s-10.3-33.5 3-45.2L187.2 76.8z"/>
</svg>